<svg xmlns="http://www.w3.org/2000/svg" xmlns:xlink="http://www.w3.org/1999/xlink" width="28" height="32" fill="none" xmlns:v="https://vecta.io/nano"><path d="M13.947 8l13.947 24h-3.923l-9.981-2.087L3.923 32H0L13.947 8z" fill="url(#A)"/><path d="M14.035 2.957l11.55 19.956H2.484l11.55-19.956z" fill="url(#B)"/><path d="M14.035 0l7.021 12.13H7.014L14.035 0z" fill="url(#C)"/><path d="M13.947 16.137L23.972 32l-10.025-2.087L3.923 32l10.025-15.863z" fill="url(#D)"/><path d="M13.947 24.522L23.972 32l-10.025-2.087L3.923 32l10.025-7.478z" fill="url(#E)"/><defs><linearGradient id="A" x1="13.947" y1="8" x2="13.947" y2="40" xlink:href="#F"><stop stop-color="#8fff00"/><stop offset="1" stop-color="#06a9dc"/></linearGradient><linearGradient id="B" x1="14.035" y1="2.957" x2="14.035" y2="29.565" xlink:href="#F"><stop stop-color="#8fff00"/><stop offset="1" stop-color="#06a9dc"/></linearGradient><linearGradient id="C" x1="14.035" y1="0" x2="14.035" y2="16.174" xlink:href="#F"><stop stop-color="#8fff00"/><stop offset="1" stop-color="#06a9dc"/></linearGradient><linearGradient id="D" x1="8.167" y1="25.576" x2="22.228" y2="25.576" xlink:href="#F"><stop offset=".411" stop-color="#ededed"/><stop offset=".411" stop-color="#fff"/></linearGradient><radialGradient id="E" cx="0" cy="0" r="1" gradientTransform="translate(13.9474 24.5217) rotate(90) scale(7.47826 20.0493)" xlink:href="#F"><stop stop-color="#767676"/><stop offset="1" stop-color="#e4e4e4"/></radialGradient><linearGradient id="F" gradientUnits="userSpaceOnUse"/></defs></svg>